<svg width="14" height="8" viewBox="0 0 14 8" fill="none" xmlns="http://www.w3.org/2000/svg">
<path d="M1.26172 3.4426C0.982459 3.4426 0.756075 3.66898 0.756075 3.94824C0.756075 4.2275 0.982459 4.45389 1.26172 4.45389L1.26172 3.4426ZM13.619 4.30579C13.8165 4.10832 13.8165 3.78817 13.6191 3.5907L10.4012 0.3728C10.2037 0.175334 9.88353 0.175334 9.68606 0.3728C9.4886 0.570266 9.4886 0.890422 9.68606 1.08789L12.5464 3.94824L9.68606 6.8086C9.4886 7.00606 9.4886 7.32622 9.68606 7.52369C9.88353 7.72115 10.2037 7.72115 10.4012 7.52369L13.619 4.30579ZM1.26172 4.45389L13.2615 4.45389L13.2615 3.4426L1.26172 3.4426L1.26172 4.45389Z" fill="black"/>
</svg>
