<svg width="46" height="36" viewBox="0 0 46 36" fill="none" xmlns="http://www.w3.org/2000/svg">
<path d="M45.9517 7.9376V7.87414C45.9344 7.83002 45.9132 7.78758 45.8883 7.74723L45.8407 7.68377L45.7455 7.58065L45.69 7.53306L45.5868 7.48547H45.5472L28.3184 0.441645C28.1276 0.364504 27.9142 0.364504 27.7235 0.441645L10.5343 7.36648H10.4947L10.3915 7.41407L10.336 7.46167L10.2408 7.56479L10.1932 7.62825C10.1683 7.6686 10.1471 7.71104 10.1298 7.75516V7.81862C10.1214 7.88446 10.1214 7.95109 10.1298 8.01692V14.3627H1.0315C0.593447 14.3627 0.238281 14.7179 0.238281 15.1559C0.238281 15.594 0.593447 15.9492 1.0315 15.9492V16.0523H10.0346V18.7651H6.94895C6.51089 18.7651 6.15572 19.1203 6.15572 19.5583C6.15572 19.9964 6.51089 20.3515 6.94895 20.3515H10.0346V23.0644H2.72107C2.28301 23.0644 1.92785 23.4195 1.92785 23.8576C1.92785 24.2956 2.28301 24.6508 2.72107 24.6508H10.0346V27.9665C10.0362 28.2867 10.2302 28.5746 10.5264 28.6962L27.7235 35.8353C27.8094 35.8694 27.9007 35.8881 27.9932 35.8908C28.0856 35.8881 28.1769 35.8694 28.2628 35.8353L45.4599 28.6962C45.7561 28.5746 45.9501 28.2867 45.9517 27.9665V8.13591C45.96 8.07007 45.96 8.00344 45.9517 7.9376ZM28.017 2.05189L34.5372 4.66159L19.704 10.936L12.9219 8.11211L28.017 2.05189ZM27.1999 33.9236L11.621 27.435V24.6429H14.9129C15.351 24.6429 15.7061 24.2877 15.7061 23.8497C15.7061 23.4116 15.351 23.0564 14.9129 23.0564H11.621V20.3436H19.1566C19.5947 20.3436 19.9499 19.9884 19.9499 19.5504C19.9499 19.1123 19.5947 18.7572 19.1566 18.7572H11.621V16.0523H13.2075C13.6455 16.0523 14.0007 15.6971 14.0007 15.259C14.0007 14.821 13.6455 14.4658 13.2075 14.4658H11.621V9.29401L17.6813 11.8006L27.1999 15.7667V33.9236ZM28.0249 14.4262L21.7584 11.8006L36.6076 5.50241L43.104 8.12004L33.6409 12.0862L28.0249 14.4262ZM28.8102 33.9236V15.7667L33.276 13.9106L44.3811 9.27815L44.4208 27.435L28.8102 33.9236Z" fill="#1A1A1A"/>
</svg>
