<svg width="29" height="44" viewBox="0 0 29 44" fill="none" xmlns="http://www.w3.org/2000/svg">
<path d="M10.6852 43.9158C10.5984 43.9158 10.5088 43.9109 10.416 43.9005C9.80148 43.8309 9.26356 43.5366 8.90045 43.0718C8.52169 42.5868 8.35659 41.9451 8.43591 41.265C8.5778 40.0511 8.74182 38.8229 8.90045 37.6359C8.96465 37.1542 9.0294 36.6724 9.09252 36.1907L9.43945 33.5404C9.78961 30.8688 10.1392 28.1971 10.4883 25.5249H8.79578C6.89984 25.5227 4.9397 25.5216 3.013 25.5304C2.60241 25.5309 1.35284 25.538 0.717267 24.2858C0.0622668 22.9962 0.839202 21.9457 1.0944 21.6004C4.6041 16.855 8.11002 12.1063 11.6165 7.3581L16.2171 1.1286C17.0248 0.0347254 17.9658 -0.320949 19.0125 0.0692516C20.0608 0.460548 20.6376 1.51277 20.4477 2.68776C20.0813 4.94949 19.7112 7.21013 19.3411 9.47132L18.3273 15.6745H19.9378C21.824 15.6762 23.7097 15.6773 25.5954 15.6707C26.0616 15.6696 27.296 15.6652 27.9564 16.8588C28.6405 18.0952 27.9586 19.1452 27.6672 19.5935C22.7536 27.1597 17.7343 34.9017 12.7484 42.6049C12.5315 42.9403 11.9003 43.9152 10.6852 43.9152V43.9158ZM6.67539 23.5525C7.38866 23.5525 8.09708 23.5531 8.7974 23.5536H11.555C12.0907 23.5547 12.5245 23.9959 12.5245 24.5395C12.5245 24.5877 12.5256 24.6272 12.5267 24.6612C12.5288 24.7554 12.5315 24.8623 12.5148 24.99C12.1312 27.9264 11.7465 30.8627 11.3618 33.7996L11.0149 36.4499C10.9518 36.9333 10.887 37.4172 10.8223 37.9006C10.6647 39.0799 10.5018 40.2993 10.3621 41.4968C10.3443 41.6497 10.3653 41.7774 10.4198 41.847C10.4603 41.8985 10.5315 41.9308 10.6313 41.9423C10.7392 41.9549 10.8412 41.9659 11.1277 41.5231C16.1141 33.8188 21.1339 26.0762 26.0481 18.5089C26.3702 18.0135 26.3238 17.9302 26.2655 17.8245C26.2126 17.7291 26.1678 17.637 25.6013 17.6409C23.7129 17.6469 21.8246 17.6463 19.9362 17.6452H17.3318C16.6552 17.6447 16.14 17.0276 16.2511 16.3497L17.4279 9.14853C17.798 6.88844 18.1681 4.62889 18.5339 2.36825C18.5916 2.01148 18.4244 1.94901 18.3435 1.91887C18.214 1.87064 18.1201 1.83502 17.7683 2.31126L13.1682 8.54076C9.66228 13.2889 6.15582 18.0376 2.64558 22.7836C2.34451 23.1908 2.3893 23.2796 2.44163 23.3821C2.48857 23.4747 2.53713 23.5662 3.00491 23.5596C4.22427 23.5541 5.45603 23.5525 6.67593 23.5525H6.67539Z" fill="url(#paint0_linear_625_1927)"/>
<defs>
<linearGradient id="paint0_linear_625_1927" x1="0.460938" y1="21.9159" x2="28.2512" y2="21.9159" gradientUnits="userSpaceOnUse">
<stop stop-color="#9E6718"/>
<stop offset="1" stop-color="#FFB545"/>
</linearGradient>
</defs>
</svg>
