<svg width="42" height="36" viewBox="0 0 42 36" fill="none" xmlns="http://www.w3.org/2000/svg">
<path d="M29.5147 0.487305C26.3827 0.487305 23.4545 1.66686 21.1821 3.82626C18.9097 1.66686 15.9814 0.487305 12.8495 0.487305C6.08087 0.487305 0.574219 6.12622 0.574219 13.0574C0.574219 17.0758 3.99891 22.0835 10.7533 27.9413C15.6916 32.2242 20.6994 35.4296 20.7494 35.4615C20.8813 35.5456 21.0317 35.5877 21.1821 35.5877C21.3325 35.5877 21.4828 35.5456 21.6149 35.4614C21.6649 35.4296 26.6726 32.2242 31.611 27.9413C38.3653 22.0834 41.79 17.0757 41.79 13.0574C41.79 6.12622 36.2833 0.487305 29.5147 0.487305ZM30.5699 26.713C26.5542 30.1973 22.4895 32.9571 21.1821 33.8212C19.8767 32.9586 15.8226 30.2065 11.8081 26.7249C5.51206 21.2646 2.18421 16.5384 2.18421 13.0574C2.18421 7.01388 6.9687 2.0973 12.8495 2.0973C15.8059 2.0973 18.5551 3.31235 20.5904 5.5186C20.7428 5.68379 20.9573 5.77773 21.1821 5.77773C21.4068 5.77773 21.6214 5.68379 21.7738 5.5186C23.8092 3.31244 26.5583 2.09738 29.5147 2.09738C35.3955 2.09729 40.18 7.01388 40.18 13.0574C40.18 16.5357 36.8569 21.2577 30.5699 26.713Z" fill="#1A1A1A"/>
</svg>
