<svg width="25" height="25" viewBox="0 0 25 25" fill="none" xmlns="http://www.w3.org/2000/svg">
<path fill-rule="evenodd" clip-rule="evenodd" d="M16.7014 3.42969H8.61113C5.81854 3.42969 3.55469 5.69354 3.55469 8.48613V16.5764C3.55469 19.369 5.81854 21.6329 8.61113 21.6329H16.7014C19.494 21.6329 21.7579 19.369 21.7579 16.5764V8.48613C21.7579 5.69354 19.494 3.42969 16.7014 3.42969ZM19.9881 16.5764C19.9826 18.3893 18.5143 19.8576 16.7014 19.8631H8.61113C6.79824 19.8576 5.32999 18.3893 5.32444 16.5764V8.48613C5.32999 6.67324 6.79824 5.20499 8.61113 5.19944H16.7014C18.5143 5.20499 19.9826 6.67324 19.9881 8.48613V16.5764ZM17.4599 8.73895C18.0184 8.73895 18.4712 8.28618 18.4712 7.72766C18.4712 7.16915 18.0184 6.71637 17.4599 6.71637C16.9014 6.71637 16.4486 7.16915 16.4486 7.72766C16.4486 8.28618 16.9014 8.73895 17.4599 8.73895ZM12.6563 7.98048C10.1429 7.98048 8.10548 10.0179 8.10548 12.5313C8.10548 15.0446 10.1429 17.0821 12.6563 17.0821C15.1696 17.0821 17.2071 15.0446 17.2071 12.5313C17.2098 11.3235 16.7312 10.1644 15.8771 9.31041C15.0231 8.45639 13.8641 7.97779 12.6563 7.98048ZM9.87524 12.5313C9.87524 14.0672 11.1203 15.3123 12.6563 15.3123C14.1922 15.3123 15.4373 14.0672 15.4373 12.5313C15.4373 10.9953 14.1922 9.75024 12.6563 9.75024C11.1203 9.75024 9.87524 10.9953 9.87524 12.5313Z" fill="white"/>
</svg>
