<svg width="28" height="28" viewBox="0 0 28 28" fill="none" xmlns="http://www.w3.org/2000/svg">
<path d="M26.5571 24.605L21.4222 19.4701C22.9784 17.4329 23.8319 14.9618 23.8323 12.3543C23.8323 9.21198 22.6084 6.25753 20.3861 4.0356C18.1642 1.81368 15.2101 0.589844 12.0674 0.589844C8.92512 0.589844 5.97067 1.81368 3.74875 4.0356C-0.838125 8.62286 -0.838125 16.0865 3.74875 20.673C5.97067 22.8953 8.92512 24.1191 12.0674 24.1191C14.6749 24.1188 17.146 23.2653 19.1833 21.709L24.3182 26.844C24.627 27.1532 25.0325 27.3078 25.4376 27.3078C25.8427 27.3078 26.2482 27.1532 26.5571 26.844C27.1756 26.2259 27.1756 25.2231 26.5571 24.605ZM5.98768 18.434C2.63547 15.0818 2.63585 9.62714 5.98768 6.27454C7.6116 4.651 9.7709 3.75651 12.0674 3.75651C14.3643 3.75651 16.5233 4.651 18.1472 6.27454C19.7711 7.89846 20.6656 10.0578 20.6656 12.3543C20.6656 14.6512 19.7711 16.8101 18.1472 18.434C16.5233 20.058 14.3643 20.9525 12.0674 20.9525C9.7709 20.9525 7.6116 20.058 5.98768 18.434Z" fill="#322D2D"/>
</svg>
