<svg width="16" height="17" viewBox="0 0 16 17" fill="none" xmlns="http://www.w3.org/2000/svg">
<path d="M7.7384 1.49579C7.85088 1.22536 8.23396 1.22536 8.34644 1.49579L10.1425 5.81408C10.1899 5.92809 10.2972 6.00598 10.4202 6.01585L15.0822 6.38961C15.3742 6.41301 15.4925 6.77735 15.2701 6.96788L11.7182 10.0105C11.6244 10.0908 11.5835 10.2169 11.6121 10.337L12.6973 14.8862C12.7653 15.1711 12.4553 15.3964 12.2054 15.2437L8.21405 12.8057C8.10869 12.7414 7.97615 12.7414 7.87079 12.8057L3.87949 15.2437C3.62954 15.3964 3.31962 15.1711 3.38757 14.8862L4.47274 10.337C4.5014 10.2169 4.46044 10.0908 4.36667 10.0105L0.814747 6.96788C0.592311 6.77735 0.710693 6.41301 1.00264 6.38961L5.66461 6.01585C5.78768 6.00598 5.8949 5.92809 5.94232 5.81408L7.7384 1.49579Z" fill="#DEA453"/>
</svg>
